<svg width="115" height="115" viewBox="0 0 115 115" fill="none" xmlns="http://www.w3.org/2000/svg">
<path d="M115 35.9752C115 34.5996 115 33.2286 114.991 31.853C114.982 30.6968 114.973 29.5406 114.941 28.3844C114.872 25.8663 114.726 23.3254 114.278 20.8302C113.825 18.2984 113.081 15.9448 111.911 13.6461C110.759 11.3885 109.26 9.32284 107.469 7.53139C105.677 5.73994 103.611 4.23641 101.354 3.08933C99.0552 1.91941 96.7016 1.17907 94.1744 0.722063C91.6837 0.274201 89.1382 0.123391 86.6202 0.0594103C85.4639 0.0274202 84.3077 0.0137094 83.1515 0.00913938C81.7759 -6.62897e-07 80.4049 0 79.0294 0H35.9752C34.5996 0 33.2286 -6.62897e-07 31.853 0.00913938C30.6968 0.0182794 29.5406 0.0274202 28.3844 0.0594103C25.8663 0.127961 23.3208 0.274201 20.8302 0.722063C18.3029 1.1745 15.9494 1.91941 13.6507 3.08933C11.3931 4.24098 9.32741 5.73994 7.53596 7.53139C5.73994 9.32284 4.24098 11.3885 3.08933 13.6461C1.91941 15.9448 1.17907 18.2984 0.722063 20.8302C0.274201 23.3208 0.127961 25.8617 0.0594103 28.3844C0.0274202 29.5406 0.0137116 30.6968 0.00914156 31.853C1.51626e-06 33.2286 0 34.5996 0 35.9752V79.0294C0 80.4049 1.51626e-06 81.776 0.00914156 83.1515C0.0182816 84.3077 0.0274202 85.464 0.0594103 86.6202C0.127961 89.1383 0.274201 91.6792 0.722063 94.1744C1.1745 96.7062 1.91941 99.0598 3.08933 101.358C4.24098 103.616 5.73995 105.682 7.53139 107.473C9.32284 109.265 11.3885 110.768 13.6461 111.915C15.9448 113.085 18.2984 113.826 20.8256 114.283C23.3162 114.73 25.8617 114.881 28.3798 114.945C29.536 114.977 30.6923 114.991 31.8485 114.995C33.224 115.005 34.5951 115.005 35.9706 115.005H79.0248C80.4004 115.005 81.7714 115.005 83.1469 114.995C84.3032 114.986 85.4594 114.977 86.6156 114.945C89.1337 114.877 91.6792 114.73 94.1698 114.283C96.6971 113.83 99.0506 113.085 101.349 111.915C103.607 110.764 105.673 109.265 107.464 107.473C109.255 105.682 110.759 103.616 111.906 101.358C113.076 99.0598 113.816 96.7062 114.273 94.1744C114.721 91.6838 114.867 89.1428 114.936 86.6202C114.968 85.464 114.982 84.3077 114.986 83.1515C114.995 81.776 114.995 80.4049 114.995 79.0294V35.9752H115Z" fill="url(#paint0_linear_44_1540)"/>
<path d="M57.4636 41.8201C62.2164 41.8201 66.0689 45.6726 66.0689 50.4209C66.0689 55.1737 62.2164 59.0217 57.4636 59.0217C52.7108 59.0217 48.8582 55.1691 48.8582 50.4209C48.8582 45.6726 52.7108 41.8201 57.4636 41.8201ZM82.2331 53.4417C82.2331 61.9328 77.9373 69.4367 71.4022 73.8971C71.0685 74.1256 70.6161 73.8651 70.6435 73.4629C70.7349 71.9548 70.7623 70.6158 70.6847 69.2402C70.6572 68.7878 70.8355 68.3491 71.1691 68.0383C75.0673 64.3823 77.5031 59.1908 77.5031 53.4371C77.5031 42.1263 68.0797 32.9771 56.673 33.4204C46.1756 33.8271 37.7074 42.4005 37.4332 52.9024C37.2778 58.8663 39.741 64.2726 43.7581 68.0429C44.0871 68.3536 44.2654 68.7924 44.238 69.2448C44.1603 70.6204 44.1877 71.9548 44.2791 73.4675C44.3019 73.8697 43.8541 74.1256 43.5205 73.9017C36.9031 69.3819 32.5798 61.7454 32.6895 53.1218C32.8586 40.0104 43.3742 29.2068 56.4765 28.6996C70.5841 28.1512 82.2331 39.462 82.2331 53.4417ZM57.3585 16.4748C77.7956 16.4154 94.4396 33.0228 94.4396 53.4371C94.4396 69.5327 84.0931 83.2565 69.7021 88.3155C69.3502 88.4389 68.9892 88.1464 69.0486 87.7762C69.2405 86.5103 69.4188 85.2399 69.5833 83.9923C69.6427 83.549 69.9215 83.1696 70.3282 82.9914C81.7258 78.0147 89.7096 66.6399 89.7096 53.4371C89.7096 35.5729 75.0993 21.0585 57.1985 21.2047C39.6862 21.3464 25.3912 35.6186 25.2221 53.1218C25.0941 66.4617 33.1145 77.9735 44.599 82.9914C45.0057 83.1696 45.2891 83.549 45.3485 83.9923C45.513 85.2444 45.6912 86.5149 45.8832 87.7808C45.938 88.151 45.5815 88.4435 45.2296 88.3201C30.697 83.2108 20.291 69.2722 20.4921 52.971C20.7389 32.8583 37.2321 16.5342 57.3585 16.4748ZM57.4636 62.504C60.7357 62.504 63.5052 63.5688 65.0864 65.2369C65.909 66.1052 66.3431 66.9963 66.4802 68.2622C66.7453 70.7163 66.5945 72.8323 66.3066 76.2141C66.0324 79.4359 65.5114 83.7318 64.8305 88.1053C64.346 91.2175 63.953 92.8992 63.5966 94.1011C63.0162 96.0525 60.85 97.7572 57.459 97.7572C54.0681 97.7572 51.9019 96.0525 51.3215 94.1011C50.965 92.8992 50.572 91.2175 50.0876 88.1053C49.4066 83.7318 48.8857 79.4359 48.6115 76.2141C48.3235 72.8323 48.1727 70.7163 48.4378 68.2622C48.5749 66.9963 49.009 66.1052 49.8317 65.2369C51.422 63.5688 54.1915 62.504 57.4636 62.504Z" fill="white"/>
<defs>
<linearGradient id="paint0_linear_44_1540" x1="57.4995" y1="0.000457002" x2="57.4995" y2="115" gradientUnits="userSpaceOnUse">
<stop stop-color="#D56EFC"/>
<stop offset="1" stop-color="#832BC1"/>
</linearGradient>
</defs>
</svg>
